<svg width="16" height="15" viewBox="0 0 16 15" fill="none" xmlns="http://www.w3.org/2000/svg">
    <path d="M0 12.3898C0 9.50954 0 6.6293 0 3.74905C0.00782675 3.72166 0.0234802 3.69427 0.0273936 3.66687C0.207409 2.30893 1.31881 1.25624 2.68457 1.16623C2.93503 1.15057 3.1894 1.16231 3.45942 1.16231C3.45942 0.966646 3.45942 0.794457 3.45942 0.626182C3.46334 0.266152 3.70205 0.00395598 4.03469 4.26024e-05C4.37124 -0.00387077 4.62561 0.262239 4.62952 0.626182C4.62952 0.794457 4.62952 0.966646 4.62952 1.14275C6.55099 1.14275 8.4568 1.14275 10.3744 1.14275C10.3744 0.970559 10.3744 0.802284 10.3744 0.637922C10.3744 0.266152 10.6209 0.00395598 10.9574 4.26024e-05C11.2979 -0.00387077 11.5445 0.262239 11.5445 0.630096C11.5445 0.798371 11.5445 0.970559 11.5445 1.15057C11.7245 1.15057 11.8849 1.15057 12.0454 1.15057C13.7633 1.13883 14.996 2.50069 15 4.00734C15.0078 6.72322 15.0078 9.43518 15 12.1511C14.996 13.462 14.0568 14.6126 12.7772 14.9139C12.6402 14.9452 12.5032 14.9687 12.3663 15C9.12207 15 5.8818 15 2.63761 15C2.61022 14.9922 2.58283 14.9765 2.55543 14.9765C1.32272 14.82 0.34829 13.9395 0.0704407 12.7342C0.0430471 12.6168 0.0234802 12.5033 0 12.3898ZM1.1701 5.78401C1.1701 5.84662 1.1701 5.89749 1.1701 5.94446C1.1701 7.9755 1.1701 10.0065 1.1701 12.0376C1.1701 13.0707 1.91755 13.8221 2.95068 13.826C5.98355 13.8299 9.01641 13.8299 12.0454 13.826C13.0785 13.826 13.8259 13.0746 13.8259 12.0415C13.8259 10.0105 13.8259 7.97941 13.8259 5.94837C13.8259 5.8975 13.8259 5.84662 13.8259 5.78792C9.60342 5.78401 5.39654 5.78401 1.1701 5.78401ZM10.3744 2.33241C8.44897 2.33241 6.54316 2.33241 4.62952 2.33241C4.62952 2.71592 4.63343 3.08378 4.62952 3.45555C4.62561 3.79993 4.36732 4.05038 4.03469 4.04647C3.70988 4.04256 3.46334 3.7921 3.45942 3.45164C3.45551 3.12291 3.45942 2.7981 3.45942 2.46938C3.45942 2.42242 3.45551 2.37546 3.4516 2.33241C1.72188 2.13674 0.993997 3.31858 1.19749 4.59434C5.40437 4.59434 9.61124 4.59434 13.8181 4.59434C14.0177 2.95855 12.9376 2.14066 11.5484 2.34024C11.5484 2.70418 11.5601 3.07204 11.5405 3.43598C11.5327 3.57295 11.4818 3.72557 11.4036 3.83906C11.2666 4.03864 11.0005 4.09734 10.7735 4.01516C10.5387 3.93298 10.3822 3.72557 10.3822 3.4712C10.3704 3.09552 10.3744 2.71984 10.3744 2.33241Z" fill="#01A2FF"/>
    <path d="M4.05488 10.9534C4.24663 10.9534 4.43448 10.9495 4.62623 10.9534C4.95104 10.9612 5.2015 11.2117 5.20541 11.5287C5.20932 11.8417 4.96278 12.1118 4.63797 12.1196C4.24272 12.1274 3.84747 12.1274 3.45222 12.1196C3.13132 12.1118 2.87695 11.8496 2.87695 11.5365C2.87695 11.2156 3.13524 10.9612 3.46787 10.9534C3.66354 10.9495 3.85921 10.9534 4.05488 10.9534Z" fill="#01A2FF"/>
    <path d="M10.9694 10.9536C11.1612 10.9536 11.349 10.9497 11.5408 10.9536C11.8695 10.9614 12.1278 11.2236 12.1239 11.5406C12.1199 11.8576 11.8695 12.1159 11.5447 12.1198C11.1533 12.1276 10.7659 12.1276 10.3746 12.1198C10.0498 12.112 9.79932 11.8537 9.79932 11.5367C9.79932 11.2158 10.0537 10.9575 10.3863 10.9497C10.5781 10.9497 10.7737 10.9536 10.9694 10.9536Z" fill="#01A2FF"/>
    <path d="M10.9543 8.66815C10.7625 8.66815 10.5747 8.67206 10.3829 8.66815C10.0503 8.66032 9.7959 8.40204 9.7959 8.08114C9.7959 7.76025 10.0542 7.50197 10.3868 7.49805C10.7664 7.49414 11.146 7.49414 11.5295 7.49805C11.8622 7.50197 12.1204 7.75633 12.1244 8.07723C12.1283 8.40204 11.8661 8.66032 11.5256 8.66815C11.3339 8.67206 11.146 8.66815 10.9543 8.66815Z" fill="#01A2FF"/>
    <path d="M4.04624 7.49783C4.238 7.49783 4.42584 7.49392 4.61759 7.49783C4.95023 7.50566 5.2046 7.76394 5.2046 8.08484C5.2046 8.40182 4.95414 8.6601 4.62933 8.66793C4.238 8.67576 3.85057 8.67576 3.45924 8.66793C3.13051 8.66402 2.87223 8.394 2.88006 8.0731C2.88788 7.75612 3.14225 7.50566 3.46315 7.49783C3.6549 7.49392 3.85057 7.49783 4.04624 7.49783Z" fill="#01A2FF"/>
    <path d="M7.50603 7.49808C7.69778 7.49808 7.88563 7.49416 8.07738 7.49808C8.41002 7.5059 8.66047 7.76419 8.66047 8.089C8.65656 8.40598 8.41002 8.66426 8.08521 8.66818C7.69387 8.676 7.30645 8.676 6.91511 8.66818C6.5903 8.66426 6.33984 8.40207 6.33984 8.08508C6.33984 7.76419 6.59421 7.5059 6.92685 7.49808C7.11469 7.49416 7.31036 7.49808 7.50603 7.49808Z" fill="#01A2FF"/>
    <path d="M7.49874 10.9534C7.6905 10.9534 7.87834 10.9495 8.07009 10.9534C8.40273 10.9612 8.6571 11.2117 8.6571 11.5365C8.6571 11.8574 8.40664 12.1196 8.07401 12.1235C7.6905 12.1274 7.30307 12.1313 6.91956 12.1235C6.59084 12.1196 6.33256 11.8496 6.33647 11.5326C6.34038 11.2117 6.59475 10.9612 6.9313 10.9534C7.11914 10.9495 7.3109 10.9534 7.49874 10.9534Z" fill="#01A2FF"/>
</svg>
