<svg width="20" height="17" viewBox="0 0 20 17" fill="none" xmlns="http://www.w3.org/2000/svg">
    <path d="M15.5282 0H3.65407C2.68521 0.000869129 1.75634 0.38611 1.07121 1.07121C0.386144 1.75606 0.000889988 2.68498 0 3.65385V10.0551C0.0021728 10.9182 0.309194 11.7527 0.867405 12.4111C1.42559 13.0696 2.19849 13.5094 3.04955 13.6528V15.5219V15.5217C3.04955 15.7868 3.18448 16.0334 3.40784 16.1759C3.53278 16.2576 3.67901 16.3011 3.82828 16.3004C3.93606 16.298 4.04209 16.2737 4.13987 16.2289L9.65012 13.7122L15.5279 13.712C16.4975 13.7111 17.4268 13.3254 18.1119 12.6399C18.7969 11.9542 19.182 11.0244 19.182 10.0551V3.65386C19.1811 2.685 18.7958 1.75613 18.1107 1.07123C17.4257 0.38616 16.4967 0.000906115 15.5279 1.61264e-05L15.5282 0ZM17.6245 10.0552H17.6248C17.6239 10.6108 17.4027 11.1435 17.0096 11.5366C16.6168 11.9295 16.084 12.1507 15.5282 12.1516H9.37613C9.35636 12.15 9.33659 12.15 9.31681 12.1516C9.29574 12.1563 9.27488 12.1626 9.25467 12.1703L9.16754 12.2013L4.60702 14.307V12.9303C4.60702 12.7236 4.5251 12.5257 4.37909 12.3795C4.23307 12.2335 4.03491 12.1515 3.82828 12.1515H3.6664C3.11059 12.1507 2.57784 11.9295 2.18496 11.5366C1.7919 11.1435 1.57092 10.6107 1.57003 10.0552V3.65393C1.5709 3.09812 1.79188 2.56559 2.18496 2.17249C2.57781 1.77964 3.1106 1.55845 3.6664 1.55756H15.5283C16.0841 1.55843 16.6168 1.77963 17.0097 2.17249C17.4028 2.56555 17.624 3.09813 17.6249 3.65393L17.6245 10.0552Z" fill="#9D9D9D"/>
</svg>
