<svg width="44" height="38" viewBox="0 0 44 38" fill="none" xmlns="http://www.w3.org/2000/svg">
    <g clip-path="url(#clip0_3_3632)">
        <path d="M38.8418 14.7963C27.581 14.7963 16.4049 14.7963 5.14412 14.7963C5.14412 15.0329 5.14412 15.2556 5.14412 15.4644C5.14412 22.2014 5.14412 28.9384 5.14412 35.6754C5.14412 35.8842 5.14412 36.093 5.13003 36.3018C5.07365 36.7472 4.83406 37.0117 4.36898 37.0117C3.17103 37.0256 1.97308 37.0256 0.789221 37.0117C0.310041 37.0117 0.0563569 36.7333 0.0140763 36.26C-1.72406e-05 36.1069 0.0140763 35.9538 0.0140763 35.7868C0.0140763 27.115 0.0140763 18.4571 0.0140763 9.78529C0.0140763 8.86661 0.0563569 8.81093 0.887875 8.47686C7.69505 5.7069 14.5022 2.92302 21.3094 0.139132C21.7604 -0.0418201 22.1691 -0.0418201 22.6201 0.139132C29.4273 2.92302 36.2486 5.69298 43.0698 8.46294C43.9436 8.81093 44 8.90837 44 9.85489C44 18.4988 44 27.1567 44 35.8007C44 36.8307 43.8027 37.0117 42.7739 37.0117C41.8014 37.0117 40.843 37.0117 39.8706 37.0117C39.0814 37.0117 38.8418 36.7611 38.8418 35.9816C38.8418 29.1333 38.8418 22.2988 38.8418 15.4505C38.8418 15.2556 38.8418 15.0468 38.8418 14.7963ZM3.56565 35.4249C3.56565 35.1325 3.56565 34.8959 3.56565 34.6593C3.56565 27.0036 3.56565 19.3479 3.56565 11.6922C3.56565 10.6344 3.76296 10.4534 4.83406 10.4534C16.2921 10.4534 27.7642 10.4534 39.2223 10.4534C40.2088 10.4534 40.4343 10.6761 40.4343 11.6505C40.4343 19.3618 40.4343 27.0732 40.4343 34.7706C40.4343 34.9934 40.4343 35.2021 40.4343 35.4109C41.139 35.4109 41.7591 35.4109 42.4215 35.4109C42.4215 35.1743 42.4215 34.9655 42.4215 34.7567C42.4215 26.6835 42.4215 18.6102 42.4356 10.5369C42.4356 10.0498 42.2806 9.81313 41.8296 9.63217C35.3466 7.01532 28.8776 4.38455 22.3946 1.7677C22.155 1.67027 21.8027 1.67027 21.5772 1.75378C15.0801 4.38455 8.59704 7.04316 2.09992 9.67393C1.7053 9.82705 1.57846 10.008 1.57846 10.4256C1.59255 18.5684 1.59255 26.7113 1.59255 34.8542C1.59255 35.0351 1.59255 35.23 1.59255 35.4388C2.25495 35.4249 2.86097 35.4249 3.56565 35.4249ZM38.8277 12.0681C27.5951 12.0681 16.3908 12.0681 5.2005 12.0681C5.2005 12.4717 5.2005 12.8197 5.2005 13.1816C16.433 13.1816 27.6233 13.1816 38.8277 13.1816C38.8277 12.7919 38.8277 12.4578 38.8277 12.0681Z" fill="black"/>
        <path d="M29.4414 35.1048C24.4522 35.1048 19.5477 35.1048 14.5586 35.1048C14.5586 35.5085 14.5586 35.8982 14.5586 36.2879C14.5304 37.3737 13.9667 37.9583 12.8674 37.9861C12.1486 38 11.4298 38.014 10.7111 37.9861C9.66813 37.9444 9.14667 37.3597 9.0903 36.3297C8.99164 34.5063 8.85071 32.6828 8.70977 30.8733C8.6393 29.9546 8.55474 29.0359 8.4279 28.1312C8.30106 27.2264 8.51246 26.4191 9.03392 25.6674C9.41445 25.1107 9.79497 24.5539 10.2037 23.9275C9.79497 23.8718 9.47082 23.8579 9.16076 23.7883C8.89299 23.7326 8.61112 23.6491 8.37153 23.5099C7.79369 23.2037 7.41316 22.7304 7.42726 22.0484C7.44135 21.3663 7.86416 20.9348 8.45609 20.6565C9.56948 20.1275 10.5278 20.2528 11.5003 21.0601C12.0358 19.9744 12.5855 18.9165 13.0647 17.8308C13.5016 16.8286 14.2626 16.2718 15.3055 16.1744C17.1659 15.9935 19.0544 15.8125 20.9148 15.7986C23.3389 15.7986 25.7629 15.9378 28.1729 16.077C29.5118 16.1605 30.5125 16.7729 31.0339 18.0953C31.4285 19.1114 31.9782 20.0579 32.401 20.9348C32.9788 20.7261 33.5003 20.4059 34.0358 20.392C34.5855 20.3641 35.1915 20.5451 35.6848 20.7956C36.8686 21.4359 36.8686 22.8 35.6848 23.4403C35.1492 23.7326 34.515 23.8162 33.8526 24.025C34.1204 24.4425 34.4023 24.9436 34.7405 25.3891C35.4593 26.3077 35.6707 27.3099 35.5157 28.4652C35.3325 29.8572 35.3043 31.263 35.1915 32.6689C35.0929 34.0191 34.9801 35.3832 34.8392 36.7334C34.7687 37.3876 34.2613 37.9165 33.5989 37.9583C32.6406 38.014 31.6681 38.014 30.7098 37.9583C29.9769 37.9165 29.4836 37.318 29.4414 36.5942C29.4273 36.0931 29.4414 35.6198 29.4414 35.1048ZM32.697 25.1663C32.4151 24.6096 32.1332 24.0528 31.8654 23.4821C31.7527 23.2176 31.5977 23.1341 31.3158 23.1341C25.1005 23.148 18.8712 23.148 12.656 23.1341C12.36 23.1341 12.2332 23.2455 12.1063 23.496C11.8385 24.0945 11.5285 24.6792 11.2325 25.2638C11.1761 25.3891 11.1057 25.5143 11.0493 25.6396C10.7815 26.0015 10.4433 26.3356 10.246 26.7253C10.0768 27.0594 9.97819 27.4909 10.0064 27.8667C10.0909 29.5649 10.246 31.2491 10.3587 32.9473C10.3728 33.1143 10.3587 33.2814 10.3587 33.4345C11.4721 33.6154 12.4305 33.6015 13.0647 32.5854C13.0929 32.5436 13.1351 32.5019 13.1633 32.474C13.9103 31.5832 14.8545 31.2213 16.0384 31.2213C19.9564 31.263 23.8744 31.263 27.7924 31.2213C29.1031 31.2074 30.146 31.5832 30.9071 32.5993C31.4849 33.3649 32.1896 33.6293 33.1339 33.5319C33.4862 33.4901 33.613 33.4205 33.6271 33.0586C33.6976 31.5693 33.6835 30.066 33.9231 28.6044C34.1345 27.3795 33.7258 26.4887 32.9366 25.6535C32.852 25.4726 32.7815 25.3195 32.697 25.1663ZM30.9635 21.5751C30.5266 20.6843 30.0615 19.8909 29.7514 19.0279C29.385 18.0396 28.6944 17.622 27.7079 17.5385C27.581 17.5246 27.4683 17.5107 27.3414 17.5107C24.6355 17.455 21.9295 17.3715 19.2376 17.3854C17.9974 17.3854 16.7572 17.5803 15.5169 17.7195C15.0096 17.7751 14.6854 18.0814 14.474 18.5546C14.0935 19.4315 13.6425 20.2806 13.2338 21.1297C13.1774 21.255 13.121 21.3942 13.0647 21.5751C19.0403 21.5751 24.9596 21.5751 30.9635 21.5751ZM14.4599 33.4623C19.5195 33.4623 24.4945 33.4623 29.54 33.4623C29.1877 32.9473 28.7649 32.7803 28.2152 32.7803C24.0717 32.7803 19.9282 32.7803 15.7847 32.7803C15.2492 32.7803 14.8264 32.9473 14.4599 33.4623ZM12.9519 35.0909C12.1909 35.0909 11.458 35.0909 10.7111 35.0909C10.7111 35.5363 10.7111 35.9539 10.7111 36.3854C11.4721 36.3854 12.205 36.3854 12.9519 36.3854C12.9519 35.94 12.9519 35.5363 12.9519 35.0909ZM33.2748 35.1048C32.5137 35.1048 31.795 35.1048 31.0339 35.1048C31.0339 35.5502 31.0339 35.9539 31.0339 36.3993C31.7809 36.3993 32.5137 36.3993 33.2748 36.3993C33.2748 35.9539 33.2748 35.5502 33.2748 35.1048ZM33.7681 22.3407C34.1627 22.285 34.4727 22.2293 34.8674 22.1737C34.205 21.7839 33.9795 21.8118 33.7681 22.3407ZM9.10439 22.1737C9.5131 22.2293 9.82316 22.2711 10.1473 22.3268C10.0487 21.8118 9.80907 21.77 9.10439 22.1737Z" fill="black"/>
        <path d="M32.9365 25.6256C32.9788 26.1545 33.0493 26.6835 33.0633 27.2124C33.0774 27.7135 32.7956 28.0615 32.3587 28.2842C31.1466 28.9106 29.85 29.2725 28.4689 29.2725C27.6514 29.2725 27.2709 28.7714 27.4118 27.964C27.6091 26.7948 28.2152 25.8622 29.1312 25.1245C30.1319 24.3172 31.499 24.3172 32.5701 25.0827C32.6124 25.1106 32.6687 25.1245 32.711 25.1384C32.7815 25.3194 32.8519 25.4725 32.9365 25.6256ZM29.1594 27.5604C29.1876 27.6161 29.2017 27.6717 29.2299 27.7135C29.8782 27.5186 30.5265 27.3238 31.1748 27.1428C31.5835 27.0314 31.5412 26.7531 31.4849 26.4468C31.4285 26.0988 31.1889 26.0571 30.907 26.0849C29.9628 26.1824 29.5681 26.8783 29.1594 27.5604Z" fill="black"/>
        <path d="M11.2325 25.2638C12.4446 23.9275 14.5727 24.5539 15.517 25.751C16.0948 26.4748 16.5176 27.2543 16.6022 28.1869C16.6585 28.8132 16.3203 29.2586 15.6861 29.2726C14.164 29.3004 12.7264 28.9524 11.4298 28.1451C10.7252 27.6997 10.8661 26.9341 10.9225 26.2381C10.9366 26.0293 10.9929 25.8345 11.0352 25.6257C11.1057 25.5143 11.1761 25.3891 11.2325 25.2638ZM14.7418 27.7136C14.7841 27.6579 14.8123 27.6022 14.8546 27.5466C14.6291 27.2543 14.4177 26.948 14.1922 26.6557C13.868 26.2521 13.4311 26.0293 12.9237 26.085C12.7687 26.0989 12.5432 26.3077 12.515 26.4469C12.4869 26.6418 12.5573 27.0037 12.6701 27.0455C13.3606 27.3239 14.0512 27.5048 14.7418 27.7136Z" fill="black"/>
        <path d="M21.9154 28.2562C20.506 28.2562 19.1108 28.2562 17.7014 28.2562C17.0672 28.2562 16.7149 27.9779 16.7149 27.5046C16.7008 27.0035 17.0672 26.6973 17.7296 26.6973C20.5906 26.6973 23.4516 26.6973 26.3267 26.6973C26.9891 26.6973 27.3414 27.0452 27.2709 27.5881C27.2145 28.0196 26.9186 28.2423 26.3548 28.2562C24.875 28.2562 23.3952 28.2562 21.9154 28.2562Z" fill="black"/>
        <path d="M21.9718 30.3443C20.8866 30.3443 19.8014 30.3443 18.7021 30.3443C18.1101 30.3443 17.7719 30.052 17.7719 29.5927C17.7578 29.1194 18.1101 28.7993 18.6739 28.7993C20.8866 28.7853 23.0992 28.7853 25.3119 28.7993C25.9039 28.7993 26.2139 29.1055 26.2139 29.5927C26.2139 30.0938 25.9039 30.3443 25.2978 30.3443C24.1704 30.3582 23.0711 30.3443 21.9718 30.3443Z" fill="black"/>
    </g>
    <defs>
        <clipPath id="clip0_3_3632">
            <rect width="44" height="38" fill="white"/>
        </clipPath>
    </defs>
</svg>
