<svg width="43" height="43" viewBox="0 0 43 43" fill="none" xmlns="http://www.w3.org/2000/svg">
    <path d="M0 11.9034C0.0335937 11.8139 0.0559896 11.7243 0.0895833 11.6235C0.492708 9.9662 1.84766 8.90239 3.54974 8.88C3.70651 8.88 3.85208 8.88 4.04245 8.88C4.05365 8.60005 4.06484 8.3313 4.08724 8.07375C4.23281 6.29328 5.55417 4.96073 7.33463 4.82635C7.5026 4.81515 7.67057 4.80396 7.83854 4.80396C18.275 4.80396 28.7115 4.80396 39.1479 4.80396C40.4693 4.80396 41.5555 5.24067 42.3169 6.34927C42.72 6.92036 42.9216 7.56984 42.9216 8.27531C42.9216 15.7667 42.9328 23.2469 42.9216 30.7383C42.9216 32.6644 41.3651 34.1649 39.4391 34.1873C39.2599 34.1873 39.0807 34.1873 38.924 34.1873C38.8568 34.7024 38.8456 35.1839 38.7336 35.643C38.3753 37.0988 37.1435 38.1178 35.643 38.2409C35.4302 38.2521 35.2286 38.2633 35.0159 38.2633C24.6242 38.2633 14.2326 38.2633 3.84088 38.2633C2.03802 38.2633 0.739062 37.4235 0.21276 35.9118C0.134375 35.699 0.0783854 35.4863 0.0111979 35.2847C0 27.4909 0 19.6972 0 11.9034ZM37.1659 21.4889C25.3185 21.4889 13.5047 21.4889 1.67969 21.4889C1.67969 22.4967 1.67969 23.4709 1.67969 24.4451C1.67969 27.8493 1.67969 31.2646 1.67969 34.6688C1.67969 35.5758 2.1724 36.2925 2.97865 36.5053C3.28099 36.5837 3.61693 36.5949 3.93047 36.5949C11.4443 36.5949 18.9581 36.5949 26.4719 36.5949C29.3385 36.5949 32.194 36.6061 35.0607 36.5837C35.4638 36.5837 35.9117 36.5053 36.2701 36.3261C36.9643 35.979 37.1883 35.3295 37.1883 34.5792C37.1883 30.3352 37.1883 26.0912 37.1883 21.8472C37.1771 21.724 37.1659 21.6232 37.1659 21.4889ZM38.8568 32.4852C40.3685 32.6644 41.2419 31.9029 41.2419 30.4696C41.2419 26.7407 41.2419 23.0118 41.2419 19.2829C41.2419 15.6659 41.2419 12.049 41.2419 8.43208C41.2419 7.51385 40.7604 6.80838 39.9542 6.58442C39.663 6.50604 39.3495 6.49484 39.0471 6.49484C28.6891 6.49484 18.3198 6.49484 7.96172 6.49484C7.80495 6.49484 7.65937 6.49484 7.5026 6.50604C6.27083 6.60682 5.52057 7.65943 5.82292 8.8912C6.00208 8.8912 6.18125 8.8912 6.36042 8.8912C15.957 8.8912 25.5536 8.8912 35.1503 8.90239C35.6878 8.90239 36.2589 8.96958 36.7404 9.18234C38.2297 9.83182 38.8904 11.0412 38.8904 12.6537C38.8792 19.0813 38.8904 25.4977 38.8904 31.9253C38.8568 32.1045 38.8568 32.2837 38.8568 32.4852ZM37.1771 14.5573C37.1771 13.8743 37.1771 13.236 37.1771 12.5977C37.1659 11.2764 36.4492 10.5597 35.1167 10.5597C28.8234 10.5597 22.519 10.5597 16.2258 10.5597C12.0042 10.5597 7.79375 10.5597 3.57213 10.5597C2.62031 10.5597 1.82526 11.1308 1.72448 12.0378C1.6349 12.8553 1.70208 13.6951 1.70208 14.5461C13.5271 14.5573 25.3185 14.5573 37.1771 14.5573ZM1.69089 19.7644C13.5271 19.7644 25.3297 19.7644 37.1547 19.7644C37.1547 18.5998 37.1547 17.4464 37.1547 16.2818C25.3297 16.2818 13.5159 16.2818 1.69089 16.2818C1.69089 17.4464 1.69089 18.5774 1.69089 19.7644Z" fill="black"/>
    <path d="M9.75335 33.2018C8.3984 33.2018 7.04346 33.2018 5.68851 33.2018C4.98304 33.2018 4.69189 32.8994 4.69189 32.2164C4.69189 30.1784 4.69189 28.1403 4.69189 26.1023C4.69189 25.4081 4.99424 25.1057 5.68851 25.1057C8.4208 25.1057 11.1643 25.1057 13.8966 25.1057C14.5685 25.1057 14.882 25.4193 14.882 26.0799C14.8932 28.1291 14.8932 30.1896 14.882 32.2388C14.882 32.8994 14.5573 33.2018 13.8966 33.213C12.5192 33.2018 11.1419 33.2018 9.75335 33.2018ZM13.2023 26.8302C10.8955 26.8302 8.63356 26.8302 6.39398 26.8302C6.39398 28.4203 6.39398 29.9656 6.39398 31.4997C8.67835 31.4997 10.9291 31.4997 13.2023 31.4997C13.2023 29.9208 13.2023 28.3867 13.2023 26.8302Z" fill="black"/>
    <path d="M25.4528 29.1146C25.4752 26.6847 27.4349 24.781 29.8648 24.8034C32.25 24.8258 34.2096 26.819 34.1648 29.193C34.12 31.6117 32.138 33.5602 29.7416 33.5154C27.3565 33.4818 25.4304 31.511 25.4528 29.1146ZM27.1325 29.1594C27.1325 30.6487 28.3419 31.8469 29.82 31.8469C31.2757 31.8357 32.4739 30.6375 32.4851 29.1706C32.4963 27.6925 31.2869 26.4831 29.8088 26.4831C28.3195 26.4719 27.1325 27.6589 27.1325 29.1594Z" fill="black"/>
</svg>
