<svg width="37" height="37" viewBox="0 0 37 37" fill="none" xmlns="http://www.w3.org/2000/svg">
    <g clip-path="url(#clip0_3_3600)">
        <path d="M34.4529 37.0001C24.1489 37.0001 13.8449 37.0001 3.53117 37.0001C3.47328 36.9808 3.42504 36.9518 3.36715 36.9325C2.09362 36.7009 1.11917 36.0254 0.511347 34.8963C0.270148 34.4524 0.16402 33.9409 -0.00964355 33.4584C-0.00964355 25.4195 -0.00964355 17.371 -0.00964355 9.33211C0.00965241 9.30316 0.0385964 9.27421 0.0385964 9.23561C0.241204 7.49852 1.86206 5.73248 4.27406 5.78073C6.36767 5.81933 8.46128 5.79038 10.5549 5.79038C10.6803 5.79038 10.8154 5.79038 10.9698 5.79038C10.9698 5.42366 10.9891 5.1052 10.9698 4.77708C10.825 2.97244 11.6741 2.17145 13.4107 2.3162C13.7387 2.34516 14.0764 2.3162 14.4334 2.3162C14.4334 2.19075 14.443 2.11354 14.4334 2.02669C14.308 0.926534 15.1087 -0.0288651 16.4788 -0.0192146C21.322 0.0386883 26.1653 0.0193873 30.999 0.0193873C32.2436 0.0193873 32.9382 0.714223 32.9382 1.96879C32.9382 5.41401 32.9382 8.84959 32.9382 12.2948C32.9382 12.4299 32.9382 12.5747 32.9382 12.7291C33.2855 12.7291 33.5846 12.7291 33.8837 12.7291C35.138 12.7291 35.823 13.4239 35.823 14.6785C35.823 16.4445 35.823 18.2202 35.8326 19.9863C35.8326 20.1117 35.9001 20.3144 35.9966 20.3626C36.7106 20.71 37 21.2794 36.9904 22.0515C36.9807 23.8658 36.9614 25.6897 37 27.504C37.0193 28.4208 36.7395 29.106 35.8326 29.4437C35.8326 31.3159 35.8326 33.1881 35.8326 35.0507C35.8326 35.2437 35.8326 35.4367 35.794 35.6201C35.6396 36.3631 35.1187 36.7588 34.4529 37.0001ZM34.6748 29.492C34.5012 29.492 34.3758 29.492 34.2407 29.492C32.2339 29.492 30.2175 29.5113 28.2107 29.4823C25.7601 29.4534 23.7244 27.3978 23.6954 24.9466C23.6665 22.3603 25.7215 20.2565 28.3072 20.2468C30.2947 20.2372 32.2822 20.2468 34.2696 20.2468C34.3951 20.2468 34.5301 20.2468 34.6363 20.2468C34.6556 20.1793 34.6748 20.16 34.6748 20.1407C34.6748 18.2588 34.6845 16.3866 34.6748 14.5048C34.6748 14.1188 34.4529 13.9064 34.067 13.8871C33.9513 13.8775 33.8258 13.8871 33.71 13.8871C23.8884 13.8871 14.0668 13.8871 4.24512 13.8871C3.15489 13.8871 2.1901 13.5783 1.36037 12.8545C1.31213 12.8159 1.25424 12.787 1.16741 12.7484C1.16741 12.8642 1.16741 12.9317 1.16741 13.009C1.16741 19.6388 1.16741 26.2784 1.16741 32.9083C1.16741 33.0627 1.17706 33.2267 1.19635 33.3715C1.4472 34.877 2.61461 35.8517 4.18723 35.8517C14.0861 35.8517 23.9752 35.8517 33.8741 35.8517C33.9416 35.8517 34.0188 35.8517 34.0863 35.8517C34.4433 35.8227 34.6748 35.6104 34.6748 35.2533C34.6748 33.3425 34.6748 31.4414 34.6748 29.492ZM31.7708 12.7194C31.7805 12.6326 31.7805 12.5747 31.7805 12.5168C31.7805 8.96539 31.7805 5.41401 31.7805 1.86263C31.7805 1.37046 31.5586 1.1678 31.0279 1.1678C26.1557 1.1678 21.2835 1.1678 16.4016 1.1678C15.7648 1.1678 15.6008 1.34151 15.6008 1.98809C15.6008 5.44297 15.6008 8.89784 15.6008 12.3527C15.6008 12.4685 15.6104 12.5843 15.6201 12.7098C16.4016 12.7098 17.1541 12.7098 17.9356 12.7098C18.1093 11.3105 18.6785 10.1042 19.7012 9.12945C20.7335 8.1451 21.9685 7.54677 23.3964 7.54677C26.8503 7.54677 28.7896 9.42862 29.5035 12.7194C30.2368 12.7194 30.9893 12.7194 31.7708 12.7194ZM31.7033 28.3339C32.861 28.3339 34.0188 28.3339 35.1669 28.3339C35.7072 28.3339 35.8326 28.2181 35.8326 27.6874C35.8326 25.8055 35.8326 23.9333 35.8326 22.0515C35.8326 21.5207 35.7168 21.4049 35.1669 21.4049C32.9286 21.4049 30.6902 21.4049 28.4519 21.4049C28.1335 21.4049 27.7958 21.4338 27.4871 21.511C25.8084 21.926 24.6795 23.5376 24.8629 25.2072C25.0655 26.9732 26.503 28.305 28.2686 28.3243C29.4167 28.3436 30.5552 28.3339 31.7033 28.3339ZM10.9601 6.97739C10.9022 6.96774 10.8636 6.95809 10.825 6.95809C8.52882 6.95809 6.22295 6.93879 3.92673 6.97739C3.47328 6.98704 2.97158 7.1511 2.56637 7.38271C1.42791 8.01 0.916563 9.35142 1.25424 10.5963C1.60157 11.8412 2.72074 12.7194 4.02321 12.7291C6.27119 12.7387 8.51917 12.7291 10.7768 12.7291C10.8347 12.7291 10.8926 12.7194 10.9601 12.7098C10.9601 10.799 10.9601 8.89784 10.9601 6.97739ZM19.1416 12.7098C22.1904 12.7098 25.2198 12.7098 28.2396 12.7098C28.1239 10.963 26.4741 8.69518 23.6858 8.69518C20.9361 8.68553 19.2574 10.9437 19.1416 12.7098ZM14.4237 12.7098C14.4237 9.62163 14.4237 6.56242 14.4237 3.48391C13.922 3.48391 13.4396 3.48391 12.9572 3.48391C12.3108 3.48391 12.1372 3.65762 12.1372 4.29456C12.1372 6.97739 12.1372 9.66023 12.1372 12.3527C12.1372 12.4685 12.1372 12.5843 12.1372 12.7194C12.909 12.7098 13.6519 12.7098 14.4237 12.7098Z" fill="black"/>
        <path d="M18.3118 15.6242C22.528 15.6242 26.7345 15.6435 30.9506 15.6146C32.2049 15.6049 33.1504 16.3963 32.9285 18.0272C32.8899 18.336 32.668 18.5194 32.3496 18.5097C32.0312 18.5001 31.8383 18.3071 31.7997 17.9983C31.7707 17.7956 31.7997 17.5929 31.79 17.3806C31.7707 17.0139 31.5585 16.8112 31.2015 16.7823C31.0857 16.7726 30.9603 16.7823 30.8445 16.7823C22.4122 16.7823 13.9702 16.7823 5.53788 16.7823C5.40281 16.7823 5.26774 16.7919 5.14232 16.7726C4.83358 16.7147 4.65027 16.5217 4.65027 16.2033C4.65027 15.8848 4.84323 15.6918 5.15196 15.6435C5.26774 15.6242 5.39316 15.6339 5.50894 15.6339C9.76369 15.6242 14.0377 15.6242 18.3118 15.6242Z" fill="black"/>
        <path d="M18.2346 34.1146C13.9992 34.1146 9.76371 34.1146 5.52824 34.1146C5.41247 34.1146 5.28704 34.1242 5.17127 34.1049C4.85288 34.076 4.63098 33.8347 4.63098 33.5355C4.63098 33.2364 4.84324 32.9951 5.16162 32.9565C5.29669 32.9469 5.42212 32.9469 5.55719 32.9469C14.0088 32.9469 22.4508 32.9469 30.9024 32.9469C31.6357 32.9469 31.7804 32.8021 31.79 32.059C31.79 31.9432 31.7804 31.8178 31.7997 31.7019C31.8576 31.4124 32.0505 31.2291 32.3496 31.2194C32.6391 31.2098 32.8706 31.3642 32.9092 31.6344C33.0057 32.3003 32.996 32.9565 32.5136 33.5066C32.1374 33.9312 31.6646 34.1049 31.0954 34.1049C26.8117 34.1146 22.528 34.1146 18.2346 34.1146Z" fill="black"/>
        <path d="M19.5854 3.48389C19.3153 4.33313 18.7653 4.89286 17.9163 5.15342C17.9163 6.06057 17.9163 6.94841 17.9163 7.84591C17.9163 7.95206 17.926 8.06787 17.9067 8.17403C17.8584 8.48284 17.6655 8.6662 17.3471 8.6855C17.048 8.7048 16.7682 8.47319 16.7682 8.16437C16.7586 6.97736 16.7489 5.7807 16.7682 4.59369C16.7779 4.28488 16.9998 4.11117 17.3182 4.07257C18.0707 3.97606 18.3891 3.6576 18.4856 2.90486C18.5338 2.53814 18.7364 2.35478 19.1127 2.34513C19.653 2.33548 20.1932 2.33548 20.7335 2.34513C21.1194 2.35478 21.3799 2.59604 21.3703 2.93381C21.3606 3.26193 21.1194 3.48389 20.7432 3.49354C20.3669 3.49354 19.981 3.48389 19.5854 3.48389Z" fill="black"/>
        <path d="M27.7958 3.48402C27.3906 3.48402 27.0143 3.49367 26.638 3.48402C26.2424 3.47437 25.9916 3.2331 26.0012 2.89534C26.0109 2.56722 26.2521 2.33561 26.6187 2.33561C27.159 2.32596 27.6993 2.32596 28.2396 2.33561C28.6351 2.34526 28.8377 2.52862 28.8763 2.92429C28.9632 3.63842 29.3105 3.98584 30.0341 4.0727C30.4007 4.12095 30.6033 4.31396 30.6033 4.69033C30.613 5.81944 30.613 6.94854 30.6033 8.0873C30.6033 8.45402 30.3525 8.69528 30.0244 8.69528C29.6964 8.69528 29.4552 8.45402 29.4552 8.0873C29.4456 7.20911 29.4456 6.33091 29.4552 5.45272C29.4552 5.24041 29.3973 5.1439 29.1947 5.0667C28.4904 4.77718 28.0466 4.2271 27.7958 3.48402Z" fill="black"/>
        <path d="M28.3072 23.1324C29.272 23.1228 30.0535 23.9141 30.0535 24.8695C30.0535 25.8152 29.272 26.5873 28.3361 26.5969C27.381 26.6066 26.5898 25.8152 26.5898 24.8598C26.5898 23.9141 27.3617 23.1421 28.3072 23.1324ZM28.3265 24.2905C28.0177 24.2808 27.7476 24.5414 27.738 24.8598C27.7283 25.1687 27.9888 25.4389 28.3072 25.4485C28.6159 25.4582 28.8861 25.1976 28.8957 24.8791C28.8957 24.5607 28.6352 24.3001 28.3265 24.2905Z" fill="black"/>
    </g>
    <defs>
        <clipPath id="clip0_3_3600">
            <rect width="37" height="37" fill="white"/>
        </clipPath>
    </defs>
</svg>
