<svg width="43" height="44" viewBox="0 0 43 44" fill="none" xmlns="http://www.w3.org/2000/svg">
    <g clip-path="url(#clip0_3_3626)">
        <path d="M4.12857 20.9169C2.98174 20.7684 2.98174 20.7684 2.98174 19.5678C2.98174 18.9737 2.98174 18.3673 2.98174 17.6989C2.30572 17.6989 1.66591 17.6989 1.0261 17.6989C0.156923 17.6989 0.0120601 17.5504 0.0120601 16.6469C0.0120601 15.8795 0.0120601 15.0997 0.0120601 14.3324C0.0120601 13.5526 0.20521 13.3546 0.97781 13.3546C1.18303 13.3546 1.40033 13.3546 1.64176 13.3546C1.64176 12.7853 1.64176 12.2531 1.64176 11.6713C1.35204 11.6713 1.06231 11.6713 0.78466 11.6713C0.241426 11.6713 0.0120601 11.4485 0.0120601 10.8916C-1.176e-05 10.0747 0.024132 9.25783 -1.17601e-05 8.44095C-0.0120836 7.94588 0.20521 7.68596 0.651869 7.52506C3.58533 6.46065 6.5188 5.38385 9.45226 4.30706C13.3153 2.89609 17.1783 1.47274 21.0533 0.0741476C21.3189 -0.0248679 21.6811 -0.0372448 21.9587 0.0617707C28.7673 2.53716 35.5516 5.02492 42.3602 7.50031C42.831 7.67358 43.0241 7.95825 43.0121 8.46571C42.9879 9.23308 43.0121 10.0128 43 10.7802C43 11.4609 42.7948 11.6713 42.1429 11.6713C41.9014 11.6713 41.66 11.6713 41.3824 11.6713C41.3824 12.2159 41.3824 12.7481 41.3824 13.3546C41.6721 13.3546 41.9618 13.3422 42.2515 13.3546C42.7706 13.3794 42.9879 13.6021 43 14.1343C43.0121 15.075 43.0121 16.0156 43 16.9563C42.9879 17.4637 42.7585 17.6865 42.2636 17.6865C41.5393 17.6989 40.827 17.6865 40.0303 17.6865C40.0303 18.3301 40.0303 18.9366 40.0303 19.5431C40.0303 20.7436 40.0303 20.7436 38.8835 20.8922C38.8835 25.3355 38.8835 29.7912 38.8835 34.2592C38.9197 34.2716 38.9559 34.3087 38.9921 34.3087C39.7889 34.2469 40.0786 34.4449 40.0424 35.4846C40.0182 36.1282 40.0424 36.7718 40.0424 37.4896C40.7546 37.4896 41.4427 37.4896 42.1308 37.4896C42.8189 37.4896 43.0121 37.6876 43.0121 38.4055C43.0121 39.965 43.0121 41.5245 43.0121 43.084C43.0121 43.7523 42.7948 43.9751 42.1429 43.9751C28.393 43.9751 14.6432 43.9751 0.893307 43.9751C0.241426 43.9751 0.024132 43.7523 0.024132 43.084C0.024132 41.5121 0.024132 39.9403 0.024132 38.356C0.024132 37.6876 0.229354 37.4896 0.893307 37.4772C1.56933 37.4772 2.24536 37.4772 2.99381 37.4772C2.99381 36.8336 2.99381 36.2272 2.99381 35.6207C2.99381 34.4201 2.99381 34.4201 4.14064 34.2716C4.12857 29.853 4.12857 25.3974 4.12857 20.9169ZM32.3164 34.2964C32.3164 29.8159 32.3164 25.3726 32.3164 20.9169C31.1696 20.7684 31.1696 20.7684 31.1696 19.5678C31.1696 18.9613 31.1696 18.3425 31.1696 17.7237C24.699 17.7237 18.2889 17.7237 11.8304 17.7237C11.8304 18.3177 11.8304 18.8871 11.8304 19.444C11.8304 20.6941 11.8304 20.6941 10.6715 20.9169C10.6715 25.3602 10.6715 29.8159 10.6715 34.284C10.7681 34.2964 10.8405 34.3087 10.913 34.3211C11.7218 34.3583 11.8425 34.4944 11.8425 35.3237C11.8425 36.0291 11.8425 36.7346 11.8425 37.4525C18.313 37.4525 24.7232 37.4525 31.1816 37.4525C31.1816 36.8213 31.1816 36.2272 31.1816 35.6207C31.1695 34.4573 31.1696 34.4573 32.3164 34.2964ZM1.26753 10.3594C14.7639 10.3594 28.224 10.3594 41.7204 10.3594C41.7204 9.93856 41.6962 9.5425 41.7324 9.14644C41.7687 8.76276 41.6117 8.62661 41.2737 8.50284C34.8153 6.15122 28.3689 3.77485 21.8984 1.42323C21.6569 1.33659 21.331 1.33659 21.0895 1.42323C17.0455 2.88371 13.0135 4.36894 8.98146 5.8418C6.53087 6.73294 4.08028 7.63645 1.64176 8.53997C1.4969 8.58948 1.30375 8.738 1.29168 8.86177C1.24339 9.35685 1.26753 9.85192 1.26753 10.3594ZM41.6962 38.8263C28.224 38.8263 14.7639 38.8263 1.30375 38.8263C1.30375 40.1259 1.30375 41.3884 1.30375 42.6632C14.788 42.6632 28.2361 42.6632 41.6962 42.6632C41.6962 41.376 41.6962 40.1135 41.6962 38.8263ZM41.6962 14.6913C28.224 14.6913 14.7639 14.6913 1.29168 14.6913C1.29168 15.2606 1.29168 15.8176 1.29168 16.3869C14.7639 16.3869 28.2119 16.3869 41.6962 16.3869C41.6962 15.8176 41.6962 15.273 41.6962 14.6913ZM2.96967 13.3298C15.3433 13.3298 27.6929 13.3298 40.0303 13.3298C40.0303 12.7729 40.0303 12.253 40.0303 11.7085C27.6687 11.7085 15.3313 11.7085 2.96967 11.7085C2.96967 12.253 2.96967 12.7729 2.96967 13.3298ZM5.4444 34.3087C6.74816 34.3087 8.03985 34.3087 9.34361 34.3087C9.34361 29.8283 9.34361 25.385 9.34361 20.9045C8.03985 20.9045 6.74816 20.9045 5.4444 20.9045C5.4444 25.385 5.4444 29.8407 5.4444 34.3087ZM37.5314 34.3211C37.5314 29.8159 37.5314 25.3726 37.5314 20.9169C36.2156 20.9169 34.9239 20.9169 33.6443 20.9169C33.6443 25.3974 33.6443 29.853 33.6443 34.3211C34.9601 34.3211 36.2277 34.3211 37.5314 34.3211ZM4.26136 17.736C4.26136 18.3673 4.26136 18.949 4.26136 19.5554C6.36186 19.5554 8.43822 19.5554 10.5387 19.5554C10.5387 18.9366 10.5387 18.3425 10.5387 17.736C8.43822 17.736 6.36186 17.736 4.26136 17.736ZM38.7386 17.7484C36.626 17.7484 34.5376 17.7484 32.4733 17.7484C32.4733 18.3796 32.4733 18.9613 32.4733 19.5554C34.5738 19.5554 36.6502 19.5554 38.7386 19.5554C38.7386 18.949 38.7386 18.3673 38.7386 17.7484ZM4.26136 37.4772C6.38601 37.4772 8.46237 37.4772 10.5267 37.4772C10.5267 36.846 10.5267 36.2643 10.5267 35.6702C8.41408 35.6702 6.34979 35.6702 4.26136 35.6702C4.26136 36.2767 4.26136 36.8584 4.26136 37.4772ZM38.7386 35.6702C36.626 35.6702 34.5497 35.6702 32.4733 35.6702C32.4733 36.2891 32.4733 36.8831 32.4733 37.4772C34.5738 37.4772 36.6502 37.4772 38.7386 37.4772C38.7386 36.8831 38.7386 36.3014 38.7386 35.6702Z" fill="black"/>
        <path d="M21.4758 34.4078C17.8301 34.4078 14.8604 31.3507 14.8725 27.6252C14.8845 23.8379 17.8422 20.8055 21.4999 20.8179C25.1939 20.8427 28.1153 23.8379 28.1153 27.6252C28.1274 31.3878 25.1577 34.4078 21.4758 34.4078ZM21.4879 33.1082C24.4817 33.0958 26.8478 30.67 26.8478 27.6128C26.8478 24.5557 24.4575 22.1175 21.4758 22.1175C18.5302 22.1175 16.1279 24.5805 16.1279 27.6005C16.14 30.6576 18.5303 33.1206 21.4879 33.1082Z" fill="black"/>
        <path d="M22.9848 28.6154V29.5189H21.3913V30.6328H20.2083V29.5189H19.7979V28.6154H20.1962V28.1203H19.7979V27.1549H20.1962V24.6052H21.8863C22.514 24.6052 22.9728 24.6547 23.2504 24.7661C23.5281 24.8775 23.7574 25.0632 23.9385 25.3478C24.1075 25.6201 24.192 25.9419 24.192 26.3009C24.192 26.5979 24.1558 26.8454 24.0834 27.0435C24.0109 27.2539 23.9144 27.4148 23.7936 27.5509C23.6729 27.6871 23.5281 27.7861 23.3591 27.8727C23.19 27.947 23.009 28.0089 22.8037 28.046C22.6106 28.0831 22.3933 28.1079 22.1881 28.1079C21.9708 28.1203 21.7535 28.1203 21.5362 28.1203H21.3793V28.6154H22.9848ZM21.3913 27.1549H21.4638C22.0311 27.1549 22.3933 27.1301 22.5261 27.0806C22.671 27.0311 22.7796 26.9445 22.8641 26.8207C22.9486 26.6969 22.9848 26.5484 22.9848 26.3627C22.9848 26.1523 22.9365 25.9914 22.8279 25.8677C22.7192 25.7439 22.5744 25.6696 22.3692 25.6325C22.3209 25.6325 22.2243 25.6201 22.0794 25.6201C21.9346 25.6201 21.7414 25.6201 21.5 25.6201H21.3793V27.1549H21.3913Z" fill="black"/>
    </g>
    <defs>
        <clipPath id="clip0_3_3626">
            <rect width="43" height="44" fill="white"/>
        </clipPath>
    </defs>
</svg>
