<svg width="183" height="30" viewBox="0 0 183 30" fill="none" xmlns="http://www.w3.org/2000/svg">
    <g clip-path="url(#clip0_6_9980)">
        <path d="M172.988 16.5305C175.352 20.2379 177.82 23.6393 180.462 26.9386C180.984 27.5849 181.783 27.857 182.479 28.2311C182.861 28.4352 183.104 28.7413 182.965 29.1835C182.826 29.6257 182.409 29.4896 182.096 29.5237C178.828 29.9998 176.325 29.1155 174.517 26.1563C172.884 23.4692 171.25 20.8502 169.859 18.0271C169.407 17.1087 166.348 16.4284 165.653 17.1087C165.27 17.4488 165.444 17.959 165.444 18.4012C165.444 20.8842 165.513 23.3672 165.409 25.8842C165.374 26.9726 165.687 27.5849 166.835 27.6869C167.356 27.7549 167.808 27.993 168.329 28.0951C168.886 28.2311 169.129 28.5373 169.025 29.0475C168.92 29.5917 168.434 29.4896 168.051 29.4896C165.027 29.4896 162.037 29.4896 159.013 29.4896C158.561 29.4896 158.074 29.5917 158.039 28.8774C158.004 28.2652 158.422 27.993 158.873 27.993C161.724 27.857 161.516 25.9862 161.481 24.0135C161.411 17.7209 161.411 11.4624 161.481 5.16991C161.481 3.80937 161.342 2.85699 159.708 2.75495C159.256 2.72093 158.839 2.48284 158.422 2.31277C158.004 2.1427 158.039 1.80256 158.074 1.46243C158.109 1.08828 158.387 1.02025 158.7 1.02025C163.15 1.29236 167.599 0.101884 172.014 0.918211C176.221 1.70052 178.515 3.97944 178.863 7.48284C179.28 11.7345 177.612 14.5237 173.648 16.2924C173.475 16.3604 173.301 16.3944 172.988 16.5305ZM165.409 9.11549C165.409 10.2039 165.409 11.2583 165.409 12.3468C165.409 15.374 165.409 15.374 168.573 15.306C171.98 15.2379 174.344 12.993 174.657 9.55767C175.004 5.78216 173.301 3.4012 169.685 2.82297C168.677 2.6529 167.599 2.75495 166.556 2.75495C165.653 2.72093 165.374 3.19712 165.374 4.04746C165.444 5.71413 165.409 7.41481 165.409 9.11549Z"
              fill="#3A3A3A"/>
        <path d="M3.05934 15.3741C3.05934 11.8027 3.02458 8.23123 3.09411 4.69381C3.09411 3.74143 2.95505 3.06116 1.80782 2.89109C1.32112 2.82306 0.903947 2.58497 0.486774 2.4149C7.20229e-05 2.21082 -0.0346924 1.83667 0.0348365 1.4285C0.13913 0.986328 0.556303 1.02034 0.869183 1.02034C1.98164 1.02034 3.09411 1.02034 4.1718 1.02034C8.865 1.02034 13.5582 1.05436 18.2514 0.986328C19.4334 0.986328 19.781 1.36048 19.642 2.44891C19.4682 3.84347 19.3986 5.27204 19.2943 6.6666C19.2596 7.00674 19.2248 7.38089 18.7729 7.44891C18.3209 7.51694 17.9733 7.4149 17.7995 6.93871C17.7299 6.76864 17.6604 6.63259 17.6256 6.46252C16.1655 3.06116 16.1655 3.06116 12.4457 3.06116C11.4028 3.06116 10.3599 3.1632 9.31694 3.02714C7.64825 2.85708 6.95296 3.29925 7.09202 5.10197C7.26584 7.75503 7.19631 10.4081 7.12678 13.0612C7.09202 14.1836 7.37013 14.7278 8.62165 14.5918C9.49076 14.4897 10.3599 14.4897 11.229 14.5918C13.2453 14.8299 14.8793 14.5237 15.5398 12.3129C15.6788 11.9047 15.9569 11.4625 16.5479 11.5646C17.1042 11.6666 17.0346 12.1428 17.0694 12.5169C17.2432 14.5918 17.2432 16.7006 17.0694 18.7754C17.0346 19.0816 17.0694 19.4897 16.6522 19.6258C16.3046 19.7278 15.8527 19.6598 15.7831 19.2856C14.914 15.9863 12.2024 16.6666 9.80364 16.6666C7.12678 16.6666 7.12678 16.6666 7.12678 19.2516C7.12678 21.5305 7.16155 23.7754 7.12678 26.0544C7.12678 26.9387 7.19631 27.653 8.3783 27.585C8.48259 27.585 8.62165 27.619 8.69118 27.687C9.38647 28.0612 10.7423 27.8231 10.6032 28.9795C10.4294 30.204 9.17788 29.5237 8.44783 29.5578C6.01432 29.6598 3.58081 29.5918 1.1473 29.5918C0.730125 29.5918 0.173894 29.7618 7.20285e-05 29.1156C-0.138986 28.4693 0.312952 28.0952 0.834419 28.0612C3.02458 27.8571 3.09411 26.4625 3.05934 24.7618C2.95505 21.5986 3.05934 18.5033 3.05934 15.3741Z"
              fill="#3A3A3A"/>
        <path d="M41.9608 12.5509C44.2553 9.48964 47.0364 8.23114 50.791 9.04746C53.4678 9.62569 54.6498 11.3604 55.1018 13.7413C55.7971 17.4488 55.3799 21.1903 55.4146 24.9318C55.4146 26.4624 55.3104 27.857 57.3962 28.1631C57.8829 28.2311 58.2653 28.5713 58.161 29.1155C58.022 29.7958 57.431 29.5577 57.0138 29.5577C54.7541 29.5917 52.4944 29.5917 50.2347 29.5577C49.8523 29.5577 49.3656 29.7277 49.2266 29.1835C49.1223 28.6393 49.4699 28.2992 49.9566 28.1971C51.6253 27.891 51.6949 26.7345 51.6253 25.408C51.4515 22.0747 51.9034 18.7413 51.3472 15.408C50.8257 12.3128 49.609 11.1223 47.1407 11.2243C44.6377 11.3264 41.9956 13.6733 41.926 16.0883C41.8218 19.5917 41.926 23.0951 41.8913 26.5985C41.8913 27.6529 42.6561 27.6869 43.3166 27.959C43.8381 28.1631 44.4986 28.3672 44.29 29.1155C44.0814 29.8298 43.4209 29.5237 42.969 29.5237C40.7788 29.5577 38.5539 29.5577 36.3637 29.5237C36.0161 29.5237 35.4946 29.6937 35.3556 29.1495C35.2165 28.6053 35.5642 28.2311 36.0509 28.1631C38.2062 27.891 38.102 26.3944 38.0672 24.8298C37.9977 20.9862 37.9977 17.1427 38.0672 13.2992C38.0672 12.1427 37.9977 11.3264 36.5028 11.3264C36.0856 11.3264 35.3208 11.4284 35.3208 10.6801C35.3208 9.99984 35.9118 9.93182 36.4333 9.79576C37.7195 9.48964 39.0058 9.1495 40.2921 8.84338C41.4393 8.57127 42.0651 8.87739 41.926 10.2039C41.8913 11.0203 41.9608 11.8026 41.9608 12.5509Z"
              fill="#3A3A3A"/>
        <path d="M155.188 19.2856C155.223 24.7618 152.755 28.5713 148.305 29.5577C139.823 31.3944 134.504 26.3604 135.651 17.2788C136.659 9.28559 143.89 7.72097 149.244 9.42165C153.485 10.7822 154.806 14.1836 155.188 18.1291C155.223 18.5033 155.188 18.8774 155.188 19.2856ZM151.121 20.306C151.191 17.0067 150.704 14.7958 149.696 13.1631C147.506 9.65974 142.604 9.5577 140.831 13.1631C138.884 17.1768 138.919 21.3944 140.97 25.408C142.013 27.4489 143.994 28.3332 146.324 28.1632C148.583 27.9931 149.73 26.4625 150.426 24.5237C150.982 23.0271 151.121 21.4625 151.121 20.306Z"
              fill="#3A3A3A"/>
        <path d="M91.5696 19.3877C89.8314 19.3877 88.0931 19.4557 86.3549 19.3537C85.0686 19.2857 84.9296 19.8299 85.0339 20.8503C85.6596 26.3945 90.4224 28.9796 96.0194 26.7687C96.5061 26.5646 97.1319 25.7142 97.6186 26.5646C98.001 27.2108 97.1667 27.653 96.7495 28.0272C92.3344 31.7347 84.2343 29.9659 81.9746 24.7279C80.3754 21.0204 80.4797 17.2108 82.0441 13.5034C83.4695 10.17 86.9807 8.50336 91.4305 8.8435C94.7679 9.08159 97.1667 10.9523 98.001 13.9796C98.3834 15.4421 98.2096 16.9047 98.1748 18.3673C98.1401 19.1836 97.6881 19.3877 96.9233 19.3537C95.1503 19.3537 93.3773 19.3877 91.5696 19.3877ZM89.7966 17.653C90.3181 17.653 90.8395 17.653 91.361 17.653C94.7332 17.653 94.7332 17.653 94.1074 14.3537C94.0726 14.0816 94.0379 13.7755 93.9683 13.5374C93.3773 11.4625 91.9868 10.4421 89.9357 10.5442C87.5022 10.6462 85.8682 12.1428 85.4511 15.102C84.9991 18.0952 84.5819 17.619 87.5369 17.687C88.3017 17.687 89.0665 17.653 89.7966 17.653Z"
              fill="#3A3A3A"/>
        <path d="M109.96 8.84349C111.49 8.77546 112.95 9.08158 114.41 9.3877C115.348 9.59179 115.731 9.89791 115.453 10.8503C115.175 11.9387 115.001 13.0612 114.757 14.1836C114.688 14.5918 114.514 14.9319 113.993 14.9319C113.471 14.9319 113.297 14.6598 113.158 14.2516C112.95 13.6734 112.637 13.0952 112.498 12.517C112.15 11.0544 111.316 10.4761 109.786 10.5442C108.396 10.6122 107.248 11.0544 106.692 12.3129C106.101 13.6394 106.484 14.8639 107.631 15.8163C109.299 17.2448 111.42 17.9591 113.228 19.1836C114.827 20.2721 116.218 21.4965 116.322 23.6054C116.496 26.9727 113.819 29.5578 109.751 29.8979C107.526 30.068 105.371 29.7959 103.25 29.1156C102.764 28.9455 101.999 28.9455 102.138 28.0952C102.381 26.7687 102.52 25.4081 103.007 24.1156C103.146 23.7755 103.25 23.4693 103.668 23.4353C104.12 23.4013 104.432 23.5714 104.606 24.0136C104.954 24.8639 105.371 25.6802 105.649 26.5306C106.032 27.7551 106.762 28.2312 108.048 28.1972C109.856 28.1632 111.385 27.721 112.185 26.0204C112.741 24.8299 112.498 23.7074 111.524 22.7551C110.481 21.7346 109.195 21.0884 107.944 20.3741C107.005 19.8299 106.032 19.3197 105.162 18.6734C102.903 17.0408 101.999 14.7959 102.659 12.653C103.285 10.5782 105.649 8.97954 108.291 8.84349C108.917 8.80947 109.438 8.84349 109.96 8.84349Z"
              fill="#3A3A3A"/>
        <path d="M70.5023 25.3059C72.0667 21.0202 73.5964 16.7685 75.1955 12.5508C75.5432 11.6325 75.5432 11.1223 74.4655 10.8161C73.944 10.6801 73.2487 10.408 73.3878 9.69369C73.5616 8.84335 74.3264 9.25151 74.8131 9.2175C76.308 9.18349 77.8376 9.18349 79.3325 9.2175C79.7497 9.2175 80.3407 8.97941 80.4797 9.65968C80.584 10.2039 80.2711 10.578 79.7844 10.6801C78.1505 10.9862 77.7333 12.2447 77.2119 13.5372C75.2651 18.4352 73.2139 23.2991 71.3019 28.1971C70.9195 29.1835 70.3633 29.7277 69.3899 29.8298C68.2426 29.9318 68.3817 28.8774 68.1383 28.2991C65.8091 23.061 63.5147 17.8229 61.2897 12.5508C60.9073 11.6325 60.3511 11.0542 59.4125 10.7481C58.891 10.578 58.4043 10.3059 58.5433 9.65968C58.6824 9.01342 59.2734 9.25151 59.6906 9.2175C61.8807 9.18349 64.1057 9.18349 66.2958 9.2175C66.6782 9.2175 67.1649 9.04743 67.304 9.59165C67.443 10.1359 67.0606 10.476 66.5739 10.578C64.94 10.9522 65.1486 11.8365 65.6353 13.061C67.1997 16.9046 68.6598 20.7481 70.1894 24.6257C70.2242 24.8298 70.3633 25.0678 70.5023 25.3059Z"
              fill="#3A3A3A"/>
        <path d="M122.232 18.6395C122.232 16.6667 122.162 14.6939 122.267 12.6871C122.336 11.4626 121.919 11.0884 120.702 11.1905C120.111 11.2245 119.138 11.6327 118.929 10.7483C118.721 9.89796 119.659 9.62585 120.285 9.48979C122.023 9.08163 122.475 8.09524 122.301 6.42857C122.162 5.17007 124.04 3.67347 125.395 3.74149C126.091 3.77551 126.091 4.18367 126.091 4.65986C126.091 5.78231 126.16 6.93877 126.091 8.06122C126.021 8.97959 126.438 9.2517 127.307 9.21769C128.594 9.14966 129.845 9.21769 131.132 9.18367C131.931 9.14966 132.418 9.28571 132.383 10.2721C132.348 11.1905 131.896 11.2585 131.166 11.2585C129.845 11.2245 128.489 11.2925 127.168 11.2245C126.334 11.1905 126.056 11.4966 126.056 12.3129C126.091 16.0884 125.986 19.898 126.091 23.6735C126.195 26.8367 127.551 27.8912 130.784 27.517C131.132 27.483 131.444 27.3469 131.792 27.3129C132.244 27.2789 132.835 26.9728 133.078 27.415C133.391 28.0612 132.626 28.1973 132.244 28.4694C131.131 29.2177 129.88 29.6599 128.559 29.8639C124.77 30.4762 122.406 28.5374 122.267 24.7619C122.197 22.7211 122.267 20.6803 122.232 18.6395C122.267 18.6395 122.267 18.6395 122.232 18.6395Z"
              fill="#3A3A3A"/>
        <path d="M29.7931 18.1972C29.7931 20.7482 29.8279 23.2992 29.7584 25.8162C29.7236 26.9387 29.8627 27.789 31.2533 27.9931C31.8095 28.0611 32.6786 28.2992 32.47 29.1495C32.2962 29.9319 31.4966 29.5577 30.9751 29.5577C28.785 29.5917 26.5948 29.5917 24.3699 29.5577C23.9527 29.5577 23.3617 29.7958 23.2227 29.1495C23.0836 28.6053 23.5008 28.2652 23.9875 28.1972C26.0038 27.9251 26.0386 26.5985 26.0038 24.9999C25.8995 21.0883 25.9343 17.2108 26.0038 13.2992C26.0386 12.1427 25.8648 11.3604 24.4394 11.3264C24.0223 11.3264 23.2574 11.4625 23.2574 10.6802C23.2574 9.99989 23.8484 9.93186 24.3699 9.82982C25.6909 9.48968 27.0468 9.14955 28.4026 8.87744C29.3412 8.67336 29.8974 8.91145 29.8627 10.0679C29.7584 12.789 29.7931 15.4761 29.7931 18.1972Z"
              fill="#3A3A3A"/>
        <path d="M27.7769 4.76179C26.1082 4.72778 25.1696 3.7754 25.2391 2.24479C25.3086 0.782202 26.3863 -0.0681385 28.055 -0.000111261C29.6194 0.067916 30.5233 0.986283 30.5233 2.44887C30.4885 3.94547 29.4803 4.79581 27.7769 4.76179Z"
              fill="#3A3A3A"/>
    </g>
    <defs>
        <clipPath id="clip0_6_9980">
            <rect width="183" height="30" fill="#3A3A3A"/>
        </clipPath>
    </defs>
</svg>
