<svg width="34" height="27" viewBox="0 0 34 27" fill="none" xmlns="http://www.w3.org/2000/svg">
    <path d="M15.593 0.0341311C15.593 0.916799 15.593 1.72204 15.593 2.60471C14.8073 2.77505 14.053 2.9299 13.2988 3.10024C10.7845 3.68869 8.60019 4.77267 7.4059 7.15742C7.06019 7.85426 6.90304 8.67499 6.8559 9.44926C6.79304 10.6416 7.4059 11.5243 8.53733 11.9889C9.18161 12.2521 9.85733 12.4844 10.533 12.6547C16.5988 14.1723 16.253 20.6607 13.613 23.5874C10.2188 27.3814 4.13733 26.5916 1.73304 21.884C-1.00124 16.5416 -0.435529 11.2456 2.97447 6.36766C5.77161 2.38791 9.73161 0.235441 14.6973 0.00316029C14.9802 -0.0123251 15.263 0.0341311 15.593 0.0341311Z" fill="#01A2FF"/>
    <path d="M33.0032 0.0967147C33.0032 0.979382 33.0032 1.78462 33.0032 2.66729C32.2175 2.83763 31.4632 2.99248 30.7089 3.16282C28.1946 3.75127 26.0103 4.83525 24.8161 7.22C24.4703 7.91684 24.3132 8.73757 24.2661 9.51184C24.2032 10.7042 24.8161 11.5869 25.9475 12.0514C26.5918 12.3147 27.2675 12.547 27.9432 12.7173C34.0089 14.2349 33.6632 20.7233 31.0232 23.65C27.6289 27.4439 21.5475 26.6542 19.1432 21.9466C16.4089 16.6042 16.9746 11.3081 20.3846 6.43024C23.1661 2.4505 27.1418 0.298025 32.1075 0.0657439C32.4061 0.0502585 32.6889 0.0812293 33.0032 0.0967147Z" fill="#01A2FF"/>
</svg>
