<svg xmlns="http://www.w3.org/2000/svg" display="none">

    <symbol id="location" viewBox="0 0 15 21">
        <path d="M7.00696 19.9053C6.83392 19.6738 6.61305 19.3734 6.35841 19.0162C5.72766 18.1313 4.89253 16.9023 4.06451 15.5126C1.81356 11.7345 0.75 8.74295 0.75 6.57476C0.75 3.40664 3.50707 0.750072 6.99333 0.750072H7.0252C10.5113 0.750072 13.2685 3.40658 13.2686 6.57476L7.00696 19.9053ZM7.00696 19.9053C7.59854 19.032 8.78904 17.2259 9.96712 15.1514L9.96712 15.1514C11.0832 13.1862 11.9138 11.4767 12.4637 10.0294C13.0171 8.57288 13.2686 7.42682 13.2686 6.57479L7.00696 19.9053Z"
              stroke-width="1.5"/>
        <path d="M9.55782 6.82582C9.55782 8.28041 8.40382 9.43582 7.00932 9.43582C5.61482 9.43582 4.46082 8.28041 4.46082 6.82582C4.46082 5.37124 5.61482 4.21582 7.00932 4.21582C8.40382 4.21582 9.55782 5.37124 9.55782 6.82582Z"
              stroke-width="1.5"/>
    </symbol>

    <symbol id="comparison" viewBox="0 0 13 18">
        <line x1="1.75" y1="16.75" x2="1.75" y2="6.25" stroke-width="2.5" stroke-linecap="round"/>
        <line x1="6.75" y1="16.75" x2="6.75" y2="9.25" stroke-width="2.5" stroke-linecap="round"/>
        <line x1="11.75" y1="16.75" x2="11.75" y2="1.25" stroke-width="2.5" stroke-linecap="round"/>
    </symbol>

    <symbol id="search" viewBox="0 0 18 18">
        <path fill-rule="evenodd" clip-rule="evenodd"
              d="M12.3977 7.02538C12.3977 9.99249 9.99241 12.3977 7.02538 12.3977C4.05832 12.3977 1.65303 9.99249 1.65303 7.02538C1.65303 4.05832 4.05832 1.65303 7.02538 1.65303C9.99241 1.65303 12.3977 4.05832 12.3977 7.02538ZM14.4293 13.2605C13.3537 12.1849 13.3322 10.4792 13.7634 9.02051C13.9504 8.38807 14.0508 7.71845 14.0508 7.02538C14.0508 3.14537 10.9054 0 7.02538 0C3.14539 0 0 3.14537 0 7.02538C0 10.9054 3.14539 14.0508 7.02538 14.0508C7.71841 14.0508 8.38801 13.9504 9.02043 13.7635C10.4792 13.3322 12.1849 13.3538 13.2605 14.4294L16.5891 17.7579C16.9118 18.0807 17.4352 18.0807 17.7579 17.7579C18.0807 17.4352 18.0807 16.9118 17.7579 16.5891L14.4293 13.2605Z"/>
    </symbol>

    <symbol id="arrow-top" viewBox="0 0 8 4">
        <path d="M4 0L7.4641 3.75H0.535898L4 0Z"/>
    </symbol>

    <symbol id="arrow-bottom" viewBox="0 0 8 4">
        <path d="M4 4L0.535899 0.249999L7.4641 0.25L4 4Z"/>
    </symbol>

    <symbol id="arrow-left" viewBox="0 0 13 21">
        <path d="M12 20L2 10.5L12 1" stroke-width="1.5" stroke-linecap="round"/>
    </symbol>

    <symbol id="arrow-right" viewBox="0 0 13 21">
        <path d="M1 1L11 10.5L1 20" stroke-width="1.5" stroke-linecap="round"/>
    </symbol>

    <symbol id="left" viewBox="0 0 17 8">
        <path d="M0.646446 3.64645C0.451185 3.84171 0.451185 4.15829 0.646446 4.35355L3.82843 7.53553C4.02369 7.73079 4.34027 7.73079 4.53553 7.53553C4.7308 7.34027 4.7308 7.02369 4.53553 6.82843L1.70711 4L4.53553 1.17157C4.7308 0.97631 4.7308 0.659727 4.53553 0.464465C4.34027 0.269203 4.02369 0.269203 3.82843 0.464465L0.646446 3.64645ZM17 3.5L1 3.5L1 4.5L17 4.5L17 3.5Z"/>
    </symbol>


    <symbol id="arrow-collapse" viewBox="0 0 18 11">
        <path d="M17 1L9 9L1 0.999999" stroke-width="1.5" stroke-linecap="round"/>
    </symbol>

    <symbol id="filter" viewBox="0 0 14 8">
        <line x1="0.75" y1="1.25" x2="12.75" y2="1.25" stroke-width="1.5" stroke-linecap="round"/>
        <line x1="0.75" y1="4.25" x2="8.25" y2="4.25" stroke-width="1.5" stroke-linecap="round"/>
        <line x1="0.75" y1="7.25" x2="5.25" y2="7.25" stroke-width="1.5" stroke-linecap="round"/>
    </symbol>

    <symbol id="calendar" viewBox="0 0 16 15">
        <path d="M0 12.3898C0 9.50954 0 6.6293 0 3.74905C0.00782675 3.72166 0.0234802 3.69427 0.0273936 3.66687C0.207409 2.30893 1.31881 1.25624 2.68457 1.16623C2.93503 1.15057 3.1894 1.16231 3.45942 1.16231C3.45942 0.966646 3.45942 0.794457 3.45942 0.626182C3.46334 0.266152 3.70205 0.00395598 4.03469 4.26024e-05C4.37124 -0.00387077 4.62561 0.262239 4.62952 0.626182C4.62952 0.794457 4.62952 0.966646 4.62952 1.14275C6.55099 1.14275 8.4568 1.14275 10.3744 1.14275C10.3744 0.970559 10.3744 0.802284 10.3744 0.637922C10.3744 0.266152 10.6209 0.00395598 10.9574 4.26024e-05C11.2979 -0.00387077 11.5445 0.262239 11.5445 0.630096C11.5445 0.798371 11.5445 0.970559 11.5445 1.15057C11.7245 1.15057 11.8849 1.15057 12.0454 1.15057C13.7633 1.13883 14.996 2.50069 15 4.00734C15.0078 6.72322 15.0078 9.43518 15 12.1511C14.996 13.462 14.0568 14.6126 12.7772 14.9139C12.6402 14.9452 12.5032 14.9687 12.3663 15C9.12207 15 5.8818 15 2.63761 15C2.61022 14.9922 2.58283 14.9765 2.55543 14.9765C1.32272 14.82 0.34829 13.9395 0.0704407 12.7342C0.0430471 12.6168 0.0234802 12.5033 0 12.3898ZM1.1701 5.78401C1.1701 5.84662 1.1701 5.89749 1.1701 5.94446C1.1701 7.9755 1.1701 10.0065 1.1701 12.0376C1.1701 13.0707 1.91755 13.8221 2.95068 13.826C5.98355 13.8299 9.01641 13.8299 12.0454 13.826C13.0785 13.826 13.8259 13.0746 13.8259 12.0415C13.8259 10.0105 13.8259 7.97941 13.8259 5.94837C13.8259 5.8975 13.8259 5.84662 13.8259 5.78792C9.60342 5.78401 5.39654 5.78401 1.1701 5.78401ZM10.3744 2.33241C8.44897 2.33241 6.54316 2.33241 4.62952 2.33241C4.62952 2.71592 4.63343 3.08378 4.62952 3.45555C4.62561 3.79993 4.36732 4.05038 4.03469 4.04647C3.70988 4.04256 3.46334 3.7921 3.45942 3.45164C3.45551 3.12291 3.45942 2.7981 3.45942 2.46938C3.45942 2.42242 3.45551 2.37546 3.4516 2.33241C1.72188 2.13674 0.993997 3.31858 1.19749 4.59434C5.40437 4.59434 9.61124 4.59434 13.8181 4.59434C14.0177 2.95855 12.9376 2.14066 11.5484 2.34024C11.5484 2.70418 11.5601 3.07204 11.5405 3.43598C11.5327 3.57295 11.4818 3.72557 11.4036 3.83906C11.2666 4.03864 11.0005 4.09734 10.7735 4.01516C10.5387 3.93298 10.3822 3.72557 10.3822 3.4712C10.3704 3.09552 10.3744 2.71984 10.3744 2.33241Z"/>
        <path d="M4.05488 10.9534C4.24663 10.9534 4.43448 10.9495 4.62623 10.9534C4.95104 10.9612 5.2015 11.2117 5.20541 11.5287C5.20932 11.8417 4.96278 12.1118 4.63797 12.1196C4.24272 12.1274 3.84747 12.1274 3.45222 12.1196C3.13132 12.1118 2.87695 11.8496 2.87695 11.5365C2.87695 11.2156 3.13524 10.9612 3.46787 10.9534C3.66354 10.9495 3.85921 10.9534 4.05488 10.9534Z"/>
        <path d="M10.9694 10.9536C11.1612 10.9536 11.349 10.9497 11.5408 10.9536C11.8695 10.9614 12.1278 11.2236 12.1239 11.5406C12.1199 11.8576 11.8695 12.1159 11.5447 12.1198C11.1533 12.1276 10.7659 12.1276 10.3746 12.1198C10.0498 12.112 9.79932 11.8537 9.79932 11.5367C9.79932 11.2158 10.0537 10.9575 10.3863 10.9497C10.5781 10.9497 10.7737 10.9536 10.9694 10.9536Z"/>
        <path d="M10.9543 8.66815C10.7625 8.66815 10.5747 8.67206 10.3829 8.66815C10.0503 8.66032 9.7959 8.40204 9.7959 8.08114C9.7959 7.76025 10.0542 7.50197 10.3868 7.49805C10.7664 7.49414 11.146 7.49414 11.5295 7.49805C11.8622 7.50197 12.1204 7.75633 12.1244 8.07723C12.1283 8.40204 11.8661 8.66032 11.5256 8.66815C11.3339 8.67206 11.146 8.66815 10.9543 8.66815Z"/>
        <path d="M4.04624 7.49783C4.238 7.49783 4.42584 7.49392 4.61759 7.49783C4.95023 7.50566 5.2046 7.76394 5.2046 8.08484C5.2046 8.40182 4.95414 8.6601 4.62933 8.66793C4.238 8.67576 3.85057 8.67576 3.45924 8.66793C3.13051 8.66402 2.87223 8.394 2.88006 8.0731C2.88788 7.75612 3.14225 7.50566 3.46315 7.49783C3.6549 7.49392 3.85057 7.49783 4.04624 7.49783Z"/>
        <path d="M7.50603 7.49808C7.69778 7.49808 7.88563 7.49416 8.07738 7.49808C8.41002 7.5059 8.66047 7.76419 8.66047 8.089C8.65656 8.40598 8.41002 8.66426 8.08521 8.66818C7.69387 8.676 7.30645 8.676 6.91511 8.66818C6.5903 8.66426 6.33984 8.40207 6.33984 8.08508C6.33984 7.76419 6.59421 7.5059 6.92685 7.49808C7.11469 7.49416 7.31036 7.49808 7.50603 7.49808Z"/>
        <path d="M7.49874 10.9534C7.6905 10.9534 7.87834 10.9495 8.07009 10.9534C8.40273 10.9612 8.6571 11.2117 8.6571 11.5365C8.6571 11.8574 8.40664 12.1196 8.07401 12.1235C7.6905 12.1274 7.30307 12.1313 6.91956 12.1235C6.59084 12.1196 6.33256 11.8496 6.33647 11.5326C6.34038 11.2117 6.59475 10.9612 6.9313 10.9534C7.11914 10.9495 7.3109 10.9534 7.49874 10.9534Z"/>
    </symbol>

</svg>