<svg xmlns="http://www.w3.org/2000/svg" display="none">

    <symbol id="location" viewBox="0 0 15 21">
        <path d="M7.00696 19.9053C6.83392 19.6738 6.61305 19.3734 6.35841 19.0162C5.72766 18.1313 4.89253 16.9023 4.06451 15.5126C1.81356 11.7345 0.75 8.74295 0.75 6.57476C0.75 3.40664 3.50707 0.750072 6.99333 0.750072H7.0252C10.5113 0.750072 13.2685 3.40658 13.2686 6.57476L7.00696 19.9053ZM7.00696 19.9053C7.59854 19.032 8.78904 17.2259 9.96712 15.1514L9.96712 15.1514C11.0832 13.1862 11.9138 11.4767 12.4637 10.0294C13.0171 8.57288 13.2686 7.42682 13.2686 6.57479L7.00696 19.9053Z"
              stroke-width="1.5"/>
        <path d="M9.55782 6.82582C9.55782 8.28041 8.40382 9.43582 7.00932 9.43582C5.61482 9.43582 4.46082 8.28041 4.46082 6.82582C4.46082 5.37124 5.61482 4.21582 7.00932 4.21582C8.40382 4.21582 9.55782 5.37124 9.55782 6.82582Z"
              stroke-width="1.5"/>
    </symbol>

    <symbol id="comparison" viewBox="0 0 13 18">
        <line x1="1.75" y1="16.75" x2="1.75" y2="6.25" stroke-width="2.5" stroke-linecap="round"/>
        <line x1="6.75" y1="16.75" x2="6.75" y2="9.25" stroke-width="2.5" stroke-linecap="round"/>
        <line x1="11.75" y1="16.75" x2="11.75" y2="1.25" stroke-width="2.5" stroke-linecap="round"/>
    </symbol>

    <symbol id="search" viewBox="0 0 18 18">
        <path fill-rule="evenodd" clip-rule="evenodd"
              d="M12.3977 7.02538C12.3977 9.99249 9.99241 12.3977 7.02538 12.3977C4.05832 12.3977 1.65303 9.99249 1.65303 7.02538C1.65303 4.05832 4.05832 1.65303 7.02538 1.65303C9.99241 1.65303 12.3977 4.05832 12.3977 7.02538ZM14.4293 13.2605C13.3537 12.1849 13.3322 10.4792 13.7634 9.02051C13.9504 8.38807 14.0508 7.71845 14.0508 7.02538C14.0508 3.14537 10.9054 0 7.02538 0C3.14539 0 0 3.14537 0 7.02538C0 10.9054 3.14539 14.0508 7.02538 14.0508C7.71841 14.0508 8.38801 13.9504 9.02043 13.7635C10.4792 13.3322 12.1849 13.3538 13.2605 14.4294L16.5891 17.7579C16.9118 18.0807 17.4352 18.0807 17.7579 17.7579C18.0807 17.4352 18.0807 16.9118 17.7579 16.5891L14.4293 13.2605Z"/>
    </symbol>

    <symbol id="arrow-top" viewBox="0 0 8 4">
        <path d="M4 0L7.4641 3.75H0.535898L4 0Z"/>
    </symbol>

    <symbol id="arrow-bottom" viewBox="0 0 8 4">
        <path d="M4 4L0.535899 0.249999L7.4641 0.25L4 4Z"/>
    </symbol>

    <symbol id="arrow-left" viewBox="0 0 13 21">
        <path d="M12 20L2 10.5L12 1" stroke-width="1.5" stroke-linecap="round"/>
    </symbol>

    <symbol id="arrow-right" viewBox="0 0 13 21">
        <path d="M1 1L11 10.5L1 20" stroke-width="1.5" stroke-linecap="round"/>
    </symbol>


    <symbol id="arrow-collapse" viewBox="0 0 18 11">
        <path d="M17 1L9 9L1 0.999999" stroke-width="1.5" stroke-linecap="round"/>
    </symbol>

</svg>