<svg width="12" height="11" viewBox="0 0 12 11" fill="none" xmlns="http://www.w3.org/2000/svg">
    <path d="M11.9832 4.17636C11.964 4.11942 11.9288 4.06874 11.8813 4.02997C11.8339 3.9912 11.7762 3.96588 11.7147 3.95683L7.9766 3.43252L6.30493 0.179487C6.27716 0.125592 6.23428 0.0802305 6.18114 0.0485173C6.128 0.016804 6.0667 0 6.00416 0C5.94162 0 5.88033 0.016804 5.82718 0.0485173C5.77404 0.0802305 5.73117 0.125592 5.7034 0.179487L4.03172 3.43252L0.294964 3.94908C0.231186 3.95657 0.170984 3.98152 0.121508 4.02094C0.0720321 4.06037 0.0353612 4.11263 0.0158503 4.17151C-0.00366059 4.23039 -0.00519162 4.29341 0.011439 4.35311C0.0280696 4.4128 0.0621631 4.46665 0.109671 4.50825L2.81389 7.04843L2.1761 10.6217C2.16533 10.6812 2.1721 10.7424 2.19566 10.7983C2.21921 10.8543 2.2586 10.9027 2.30936 10.9382C2.36011 10.9738 2.4202 10.9949 2.4828 10.9992C2.5454 11.0035 2.608 10.9908 2.6635 10.9627L6.00416 9.27222L9.34617 10.9614C9.40167 10.9895 9.46427 11.0022 9.52687 10.9979C9.58947 10.9936 9.64956 10.9725 9.70031 10.937C9.75107 10.9015 9.79046 10.853 9.81401 10.797C9.83757 10.7411 9.84434 10.6799 9.83357 10.6204L9.19444 7.04843L11.8987 4.50825C11.9436 4.46608 11.9754 4.41262 11.9903 4.35395C12.0053 4.29528 12.0028 4.23376 11.9832 4.17636Z" fill="#FFC700"/>
</svg>
