<svg width="29" height="27" viewBox="0 0 29 27" fill="none" xmlns="http://www.w3.org/2000/svg">
<path d="M28.6347 10.0574C28.6799 10.1956 28.6856 10.3437 28.6511 10.485C28.6166 10.6263 28.5433 10.7551 28.4395 10.8566L22.1986 16.9738L23.6736 25.5758C23.6985 25.719 23.6829 25.8663 23.6285 26.001C23.5741 26.1357 23.4832 26.2525 23.3661 26.338C23.249 26.4235 23.1103 26.4743 22.9658 26.4847C22.8214 26.4951 22.6769 26.4646 22.5488 26.3968L14.836 22.329L7.12639 26.3999C6.9983 26.4677 6.85382 26.4982 6.70936 26.4878C6.56489 26.4774 6.42622 26.4266 6.30908 26.3411C6.19195 26.2556 6.10104 26.1389 6.04668 26.0041C5.99232 25.8694 5.97668 25.7221 6.00154 25.5789L7.47344 16.9738L1.23259 10.8566C1.12295 10.7564 1.04427 10.6267 1.00589 10.483C0.967511 10.3392 0.971044 10.1875 1.01607 10.0457C1.0611 9.90388 1.14573 9.77804 1.25991 9.68309C1.37409 9.58814 1.51303 9.52807 1.66022 9.51002L10.284 8.26606L14.1419 0.432234M28.6347 10.0574C28.5904 9.92024 28.509 9.79819 28.3995 9.70483C28.2901 9.61147 28.1569 9.55048 28.015 9.52868M28.6347 10.0574L28.1595 10.2129C28.1757 10.2624 28.1778 10.3157 28.1654 10.3664C28.153 10.4171 28.1267 10.4631 28.0898 10.4992L28.0895 10.4995L21.8486 16.6167L21.6616 16.8001L21.7058 17.0583L23.1808 25.6603L23.181 25.6613C23.1899 25.7127 23.1843 25.7656 23.1648 25.8139C23.1453 25.8622 23.1129 25.9038 23.0713 25.9341C23.0298 25.9644 22.9808 25.9823 22.93 25.986C22.8791 25.9896 22.8282 25.9789 22.7829 25.9549L22.782 25.9545L15.0693 21.8868L14.8359 21.7637L14.6026 21.8869L6.89292 25.9577L6.89231 25.9581C6.84702 25.982 6.79607 25.9928 6.74522 25.9891C6.69437 25.9854 6.64539 25.9675 6.60386 25.9372C6.56231 25.9069 6.52984 25.8653 6.51036 25.817C6.49087 25.7687 6.48524 25.7158 6.49418 25.6644L6.49439 25.6632L7.96629 17.0581L8.01043 16.8L7.82344 16.6167L1.58259 10.4995L1.57635 10.4934L1.5699 10.4875C1.53092 10.4519 1.50275 10.4056 1.48897 10.354C1.47519 10.3024 1.47646 10.2479 1.49262 10.197C1.50877 10.1461 1.53905 10.1013 1.5796 10.0675C1.62013 10.0338 1.66925 10.0127 1.72108 10.0063L1.72109 10.0064L1.7316 10.0049L10.3554 8.76094L10.6162 8.72333L10.7326 8.48697L14.5902 0.65362L14.1419 0.432234M28.6347 10.0574L28.1589 10.2111C28.143 10.1619 28.1139 10.1184 28.075 10.0852C28.0365 10.0524 27.9899 10.0309 27.9404 10.0231L27.9425 10.0234L28.015 9.52868M28.015 9.52868L19.3881 8.26606L15.5302 0.432234C15.4661 0.302446 15.3671 0.193208 15.2445 0.116837C15.1218 0.0404667 14.9804 0 14.836 0C14.6917 0 14.5502 0.0404667 14.4276 0.116837C14.305 0.193208 14.206 0.302446 14.1419 0.432234M28.015 9.52868L27.9391 10.0229L19.3157 8.76079L19.0556 8.72273L18.9395 8.48697L15.0818 0.65362C15.0589 0.607166 15.0236 0.56832 14.9802 0.541273C14.9368 0.514236 14.8868 0.5 14.836 0.5C14.7852 0.5 14.7353 0.514236 14.6919 0.541273C14.6486 0.568244 14.6134 0.606946 14.5904 0.653227L14.5905 0.653134L14.1419 0.432234" stroke="#FFC700"/>
<path d="M14.4276 0.116837C14.5502 0.0404667 14.6917 0 14.836 0V22.329L7.12639 26.3999C6.9983 26.4677 6.85382 26.4982 6.70936 26.4878C6.56489 26.4774 6.42622 26.4266 6.30908 26.3411C6.19195 26.2556 6.10104 26.1389 6.04668 26.0041C5.99232 25.8694 5.97668 25.7221 6.00154 25.5789L7.47344 16.9738L1.23259 10.8566C1.12295 10.7564 1.04427 10.6267 1.00589 10.483C0.967511 10.3392 0.971044 10.1875 1.01607 10.0457C1.0611 9.90388 1.14573 9.77804 1.25991 9.68309C1.37409 9.58814 1.51303 9.52807 1.66022 9.51002L10.284 8.26606L14.1419 0.432234C14.206 0.302446 14.305 0.193208 14.4276 0.116837Z" fill="#FFC700"/>
</svg>
