<svg width="29" height="27" viewBox="0 0 29 27" fill="none" xmlns="http://www.w3.org/2000/svg">
    <path d="M18.8306 8.651L18.9483 8.88352L19.2063 8.92027L28.2366 10.2067C28.2371 10.2068 28.2375 10.2068 28.238 10.2069C28.2967 10.2159 28.3505 10.2404 28.3938 10.2764C28.4374 10.3126 28.4684 10.3587 28.485 10.4086L28.9594 10.2511L28.4856 10.4104C28.5025 10.4607 28.5045 10.5142 28.4917 10.5653C28.4789 10.6165 28.4512 10.6646 28.4103 10.7036L28.4099 10.7039L21.8748 16.9389L21.681 17.1238L21.7275 17.3874L23.272 26.1551L23.2722 26.1562C23.2814 26.2078 23.2757 26.261 23.2553 26.3103C23.2348 26.3598 23.1999 26.4042 23.1528 26.4377C23.1057 26.4711 23.0487 26.4918 22.9883 26.496C22.9279 26.5003 22.868 26.4878 22.8157 26.4608L22.8149 26.4604L14.7384 22.3143L14.5099 22.197L14.2815 22.3144L6.20824 26.4636L6.20763 26.464C6.15531 26.4909 6.09542 26.5034 6.03502 26.4992C5.97463 26.495 5.91767 26.4743 5.87053 26.4408C5.82349 26.4074 5.78854 26.3629 5.76806 26.3135C5.74762 26.2642 5.74193 26.2109 5.75114 26.1593L5.75136 26.1581L7.29268 17.3872L7.339 17.1237L7.14537 16.9389L0.610184 10.7039L0.603872 10.6979L0.597354 10.6921C0.553908 10.6535 0.524139 10.6048 0.509832 10.5526C0.49555 10.5006 0.496833 10.4458 0.513646 10.3942C0.530492 10.3426 0.562707 10.2951 0.608216 10.2582C0.653837 10.2213 0.710622 10.197 0.77209 10.1897L0.772103 10.1898L0.782351 10.1883L9.81285 8.92041L10.0715 8.88409L10.1895 8.651L14.2291 0.666779C14.2291 0.666724 14.2292 0.666669 14.2292 0.666615C14.2535 0.618715 14.2919 0.576739 14.3415 0.546676C14.3913 0.516522 14.4497 0.5 14.5101 0.5C14.5704 0.5 14.6288 0.516522 14.6786 0.546676C14.7282 0.576736 14.7666 0.618708 14.7909 0.666601C14.791 0.66666 14.791 0.666719 14.791 0.666779L18.8306 8.651Z" stroke="#FFC700"/>
</svg>
