<svg width="19" height="12" viewBox="0 0 19 12" fill="none" xmlns="http://www.w3.org/2000/svg">
    <path d="M16.2173 2.77763C14.4343 0.998954 12.0185 0 9.5 0C6.98153 0 4.56578 0.998954 2.78268 2.77763L0.214014 5.34646C0.0769949 5.48348 0 5.66928 0 5.86306C0 6.05684 0.0769949 6.24264 0.214014 6.37966L2.78268 8.94832V8.94849C4.56574 10.7272 6.98153 11.7261 9.5 11.7261C12.0185 11.7261 14.4342 10.7272 16.2173 8.94849L18.786 6.37982V6.37966C18.923 6.24264 19 6.05684 19 5.86306C19 5.66928 18.923 5.48348 18.786 5.34646L16.2173 2.77763ZM15.184 7.91479V7.91496C13.6754 9.42024 11.6312 10.2657 9.50017 10.2657C7.36913 10.2657 5.32479 9.42024 3.81638 7.91496L1.76431 5.86289L3.81638 3.81082C5.32491 2.30554 7.36913 1.46009 9.50017 1.46009C11.6312 1.46009 13.6755 2.30554 15.184 3.81082L17.236 5.86289L15.184 7.91479Z" fill="#9D9D9D"/>
    <path d="M9.50009 2.20923C8.53099 2.20923 7.60169 2.59419 6.91643 3.27946C6.23117 3.96473 5.84619 4.89403 5.84619 5.86312C5.84619 6.83222 6.23116 7.76152 6.91643 8.44678C7.6017 9.13204 8.53099 9.51702 9.50009 9.51702C10.4692 9.51702 11.3985 9.13205 12.0837 8.44678C12.769 7.76151 13.154 6.83222 13.154 5.86312C13.1528 4.89436 12.7675 3.96569 12.0824 3.28076C11.3975 2.59566 10.4688 2.21036 9.50009 2.20923ZM9.50009 8.05546C8.91855 8.05546 8.36103 7.82448 7.94979 7.41342C7.53873 7.00219 7.30775 6.44466 7.30775 5.86312C7.30775 5.28159 7.53873 4.72407 7.94979 4.31283C8.36102 3.90176 8.91855 3.67079 9.50009 3.67079C10.0816 3.67079 10.6391 3.90176 11.0504 4.31283C11.4614 4.72406 11.6924 5.28159 11.6924 5.86312C11.6924 6.44466 11.4614 7.00218 11.0504 7.41342C10.6392 7.82448 10.0816 8.05546 9.50009 8.05546Z" fill="#9D9D9D"/>
</svg>
